<?xml version="1.0" standalone="no"?>
<!DOCTYPE svg PUBLIC "-//W3C//DTD SVG 20010904//EN"
 "http://www.w3.org/TR/2001/REC-SVG-20010904/DTD/svg10.dtd">
<svg version="1.0" xmlns="http://www.w3.org/2000/svg"
 width="1024.000000pt" height="1024.000000pt" viewBox="0 0 1024.000000 1024.000000"
 preserveAspectRatio="xMidYMid meet">

<g transform="translate(0.000000,1024.000000) scale(0.100000,-0.100000)"
fill="#000000" stroke="none">
<path d="M0 5120 l0 -5120 5120 0 5120 0 0 5120 0 5120 -5120 0 -5120 0 0
-5120z m5190 3580 c31 9 59 -1 83 -28 18 -20 18 -20 -2 -15 -12 3 -28 -1 -37
-8 -14 -11 -15 -29 -9 -129 6 -96 10 -119 27 -137 20 -22 20 -23 2 -50 -16
-24 -18 -45 -15 -158 3 -145 10 -169 47 -162 33 6 26 -12 -16 -40 -36 -25 -94
-30 -133 -12 -28 13 -37 29 -83 154 -63 173 -85 230 -95 240 -6 6 -7 -45 -3
-145 7 -165 15 -196 56 -202 22 -3 21 -5 -9 -21 -37 -20 -139 -23 -178 -5 -31
14 -32 23 -3 25 29 3 40 22 33 63 -2 19 -5 76 -5 126 0 78 -3 93 -21 113 -21
23 -21 24 -4 53 15 25 17 47 13 139 -5 115 -16 144 -51 135 -18 -4 -18 -3 3
19 35 37 73 49 112 36 74 -26 108 -79 174 -268 21 -62 42 -113 47 -113 8 0 2
148 -12 275 -6 60 -6 60 -39 60 -17 0 -32 1 -32 2 0 2 18 16 41 32 30 23 46
28 62 22 12 -5 33 -5 47 -1z m542 -56 c60 -45 98 -143 98 -254 0 -44 5 -73 16
-88 15 -22 15 -25 -5 -45 -11 -13 -32 -61 -47 -109 -33 -106 -80 -173 -150
-210 -42 -23 -55 -26 -88 -18 -100 22 -151 130 -147 310 1 53 -3 81 -13 95
-13 18 -12 22 8 45 13 14 29 43 36 65 20 64 79 164 108 182 15 10 30 21 33 26
21 29 113 30 151 1z m546 -129 c20 -9 51 -32 69 -53 l32 -37 32 18 c30 17 31
17 24 0 -3 -10 -22 -66 -42 -125 -20 -60 -40 -108 -45 -108 -24 0 -80 31 -75
42 36 95 41 117 30 141 -7 15 -26 30 -48 37 -34 11 -39 10 -65 -15 -40 -38
-46 -74 -21 -130 15 -33 29 -49 50 -56 26 -9 29 -15 25 -37 -4 -17 4 -47 20
-82 41 -88 32 -167 -27 -243 -49 -64 -123 -92 -196 -76 -55 12 -94 47 -127
111 -29 57 -30 89 -4 146 21 46 18 72 -9 72 -13 1 -13 3 4 16 11 8 26 11 35 8
8 -4 33 -10 55 -13 43 -6 59 -33 32 -54 -7 -7 -22 -33 -31 -59 -17 -46 -17
-50 1 -85 37 -76 105 -77 143 -2 32 63 10 141 -47 161 -30 11 -34 16 -29 40 4
19 -4 47 -25 89 -27 54 -30 69 -25 112 20 147 143 232 264 182z m-2163 -7 c30
-13 33 -28 6 -28 -34 0 -32 -16 11 -91 66 -118 88 -147 122 -163 28 -13 32
-19 29 -48 -6 -48 131 -273 165 -272 26 1 27 -4 6 -34 -9 -13 -26 -22 -42 -22
-15 0 -35 -9 -45 -20 -17 -21 -62 -26 -86 -11 -11 7 -9 10 8 16 30 9 27 27
-21 101 -45 69 -50 71 -125 43 -30 -11 -32 -18 -22 -74 5 -28 11 -64 14 -82 4
-25 11 -32 31 -35 l26 -3 -22 -28 c-17 -22 -28 -27 -46 -23 -16 4 -30 0 -44
-14 -15 -15 -31 -20 -52 -18 -35 3 -52 28 -20 28 34 0 35 22 3 240 -9 61 -16
78 -36 93 -24 18 -24 19 -9 55 16 39 14 90 -8 202 -12 64 -24 83 -49 75 -13
-5 -16 -1 -12 14 9 35 42 56 87 55 37 -1 45 3 59 28 18 31 33 34 72 16z m2535
-139 c-7 -11 -10 -22 -8 -23 2 -1 35 -22 73 -47 39 -24 80 -50 90 -56 11 -7
38 -22 60 -34 22 -12 71 -41 108 -65 72 -47 110 -55 126 -26 9 15 12 15 21 2
12 -18 4 -48 -20 -75 -9 -11 -20 -32 -24 -47 -7 -31 -49 -49 -69 -29 -8 8 -8
11 1 11 7 0 12 7 12 15 0 15 -128 95 -153 95 -7 0 -26 -21 -41 -47 -15 -27
-42 -73 -61 -103 -27 -43 -33 -62 -28 -88 5 -29 2 -33 -28 -46 -24 -10 -44
-32 -68 -73 -19 -32 -42 -70 -52 -85 -24 -34 -24 -43 1 -68 19 -19 19 -19 -13
-25 -35 -7 -87 8 -87 25 0 5 -15 16 -32 23 -40 17 -54 33 -64 71 -6 27 -6 28
15 16 13 -6 28 -9 36 -7 25 10 109 161 114 207 5 37 10 46 29 48 14 2 35 23
59 60 47 74 93 157 93 170 0 11 -132 92 -149 92 -6 0 -11 -7 -11 -16 0 -9 -6
-14 -12 -12 -19 7 -22 63 -4 78 9 7 16 22 16 34 0 30 18 46 52 46 26 0 28 -2
18 -21z m-2967 -239 l29 -44 -26 -23 c-37 -32 -51 -29 -77 15 -54 90 -90 103
-141 52 -24 -25 -29 -36 -23 -58 16 -67 112 -113 171 -82 21 12 27 11 47 -7
12 -11 40 -24 62 -28 111 -19 184 -108 186 -224 2 -59 -7 -87 -38 -130 -46
-60 -117 -75 -219 -45 -55 16 -82 42 -104 99 -8 22 -15 26 -35 23 -32 -7 -35
26 -4 43 12 6 32 23 44 36 26 31 70 25 60 -8 -9 -29 48 -105 88 -118 57 -19
107 11 107 64 0 47 -38 97 -87 115 -38 13 -46 12 -79 -4 -37 -17 -38 -17 -54
3 -10 15 -36 25 -77 33 -78 14 -126 52 -159 122 -28 59 -30 102 -9 154 32 75
86 112 165 112 43 0 50 3 50 19 0 54 13 51 53 -11 22 -35 54 -83 70 -108z
m3615 -226 c12 -8 22 -24 22 -34 0 -12 10 -21 29 -25 40 -8 117 -69 136 -105
17 -33 20 -106 5 -145 -24 -63 -117 -125 -187 -125 -13 0 -23 -1 -23 -3 0 -1
4 -17 9 -35 14 -46 3 -67 -72 -144 -36 -36 -73 -80 -81 -97 -14 -27 -14 -31
-1 -45 14 -14 13 -16 -10 -22 -29 -7 -71 1 -102 22 -19 12 -23 23 -23 62 1 45
4 51 86 137 46 50 87 98 90 109 4 13 -4 28 -25 49 l-31 32 -66 -65 c-65 -64
-124 -135 -124 -151 0 -4 7 -14 15 -23 13 -13 12 -15 -14 -21 -39 -8 -70 9
-77 45 -5 20 -13 29 -33 33 -16 4 -32 16 -39 32 -15 32 -16 75 -2 75 6 0 10
-4 10 -9 0 -5 8 -12 17 -16 27 -10 213 188 213 226 0 23 5 28 34 33 26 5 53
27 117 98 l83 91 -23 18 -23 19 34 0 c18 0 44 -7 56 -16z m-4143 -63 c33 -15
76 -42 95 -60 21 -18 51 -34 73 -38 32 -5 37 -9 37 -34 0 -16 20 -58 50 -103
57 -86 80 -143 80 -201 0 -107 -50 -160 -149 -160 -69 1 -169 48 -236 113 -25
23 -58 45 -75 48 -22 5 -30 12 -30 27 0 11 -14 41 -30 67 -73 114 -99 234 -65
301 39 74 144 91 250 40z m-446 -320 c11 -7 9 -10 -8 -16 -28 -8 -27 -14 13
-98 18 -40 41 -89 50 -109 18 -39 37 -46 81 -29 16 6 24 2 40 -22 32 -45 282
-136 300 -108 3 6 10 9 14 6 8 -4 -22 -152 -33 -163 -3 -3 -72 18 -152 47 -80
29 -150 51 -154 49 -14 -5 10 -31 79 -86 65 -52 96 -63 119 -40 22 22 14 -56
-8 -85 -11 -14 -20 -29 -20 -34 0 -25 -98 -91 -113 -76 -3 3 1 16 9 29 9 13
13 28 9 33 -3 6 -41 36 -83 68 -42 32 -79 60 -82 64 -12 14 -51 29 -79 29 -24
0 -30 5 -36 29 -4 20 -27 44 -77 82 -40 30 -82 60 -95 67 -27 15 -63 7 -63
-14 0 -8 -4 -14 -10 -14 -5 0 -10 21 -10 46 0 38 5 51 30 74 17 15 30 35 30
43 0 19 36 42 80 52 34 7 35 7 18 -12 -10 -11 -18 -25 -18 -31 0 -12 171 -144
178 -137 5 4 -52 156 -76 203 -14 26 -21 32 -39 27 -19 -4 -23 -1 -23 19 0 65
85 135 129 107z m2616 -6 c94 -4 195 -11 225 -17 92 -17 235 -66 292 -101 30
-18 105 -55 168 -82 132 -58 192 -110 240 -209 46 -93 51 -193 16 -309 -22
-70 -38 -100 -82 -155 -63 -77 -64 -89 -15 -196 24 -51 58 -130 121 -283 7
-17 36 -30 137 -61 172 -54 297 -89 360 -103 38 -7 60 -19 77 -40 44 -52 46
-140 5 -193 -11 -14 -36 -76 -55 -138 -71 -224 -114 -286 -241 -349 l-68 -33
0 -92 c0 -78 -4 -98 -26 -141 l-26 -49 28 -32 c23 -26 29 -42 29 -80 0 -26 5
-53 11 -59 17 -17 15 -128 -4 -270 -8 -68 -14 -143 -12 -169 2 -25 -1 -58 -7
-72 -13 -31 -24 -158 -33 -356 -4 -85 -11 -149 -19 -165 -8 -14 -17 -50 -21
-78 -4 -29 -15 -63 -24 -75 -10 -13 -21 -45 -25 -73 -8 -60 -87 -198 -173
-300 -43 -51 -76 -79 -123 -104 -59 -31 -75 -35 -185 -42 -66 -5 -140 -11
-165 -15 -47 -6 -73 -1 -170 34 -30 11 -87 24 -127 27 l-72 7 -31 -65 c-82
-167 -210 -209 -469 -151 -303 67 -487 167 -689 372 -119 121 -263 321 -297
414 -22 59 -18 132 19 374 l27 170 -84 85 c-66 67 -99 113 -166 228 -46 79
-98 174 -116 210 -38 77 -147 391 -164 471 -25 122 -52 364 -58 515 -6 176 -1
218 63 480 64 262 117 409 189 524 95 152 161 239 199 262 22 13 36 30 39 48
18 86 209 215 395 265 48 13 124 38 170 55 89 33 146 44 317 61 61 6 157 22
215 35 133 30 157 34 200 29 19 -2 112 -6 205 -9z m2513 -198 c14 -13 22 -32
22 -54 0 -26 4 -33 19 -33 10 0 29 -8 41 -18 18 -15 21 -24 15 -50 -7 -34 -19
-41 -29 -17 -10 28 -35 15 -116 -62 -56 -54 -85 -90 -95 -118 -11 -33 -19 -41
-45 -46 -47 -10 -233 -195 -227 -226 3 -15 -1 -23 -10 -23 -26 0 -53 20 -53
40 0 10 -13 28 -30 40 -24 17 -30 28 -30 58 1 33 2 35 14 20 22 -30 41 -21 98
45 l55 62 -29 45 c-34 52 -38 53 -132 10 -57 -25 -67 -33 -63 -50 4 -15 0 -20
-13 -20 -24 0 -50 26 -50 50 0 10 -11 25 -24 34 -13 8 -27 29 -31 47 -8 37 9
63 20 29 6 -20 12 -22 49 -18 22 3 75 19 116 37 41 18 92 39 113 48 23 10 40
25 43 39 6 21 11 24 63 23 43 -1 75 7 139 34 102 44 115 54 108 83 -5 19 -3
21 17 17 12 -3 32 -15 45 -26z m-5109 -3448 c21 -20 31 -40 31 -60 0 -17 5
-29 13 -29 24 0 74 -56 92 -103 11 -30 15 -58 11 -80 -8 -44 -57 -112 -95
-132 -28 -14 -99 -22 -130 -14 -9 3 -17 -7 -21 -26 -34 -154 -225 -227 -333
-126 -34 31 -57 72 -57 101 0 12 -11 31 -24 43 -13 12 -27 34 -30 50 -7 30 -4
32 22 16 15 -10 29 -4 81 32 34 24 84 59 109 77 26 17 49 42 52 54 4 17 15 24
40 28 36 6 170 91 204 128 18 20 18 21 -8 46 -22 23 -23 26 -6 26 10 0 32 -14
49 -31z m4902 -28 c61 -32 96 -67 115 -118 21 -55 14 -108 -21 -161 -33 -51
-33 -51 75 -122 67 -44 82 -50 99 -40 12 6 21 15 21 21 0 6 5 7 10 4 6 -3 10
-24 10 -45 0 -31 -6 -43 -29 -60 -18 -12 -31 -31 -33 -48 -2 -20 -13 -32 -40
-45 -43 -21 -64 -16 -46 12 16 26 5 46 -44 80 -24 17 -63 44 -87 62 -27 19
-59 33 -79 34 -28 2 -37 8 -47 32 -8 18 -40 47 -92 81 -87 57 -94 59 -113 37
-28 -34 -36 37 -9 86 5 11 16 19 25 19 8 0 14 6 13 13 -9 54 47 147 105 173
41 19 114 12 167 -15z m-406 -487 c22 -10 60 -33 85 -50 25 -18 59 -34 75 -36
25 -2 31 -8 33 -32 2 -15 25 -58 51 -95 79 -111 99 -209 55 -278 -54 -85 -199
-65 -334 47 -25 21 -57 40 -70 42 -18 2 -26 10 -28 28 -2 13 -17 43 -33 67
-46 67 -69 129 -69 189 0 102 47 147 145 140 28 -2 68 -12 90 -22z m-4056 -30
c12 -15 21 -33 21 -40 0 -8 10 -14 24 -14 31 0 56 -25 56 -56 0 -26 -9 -31
-28 -12 -15 15 -37 -7 -105 -107 -34 -51 -47 -80 -47 -105 0 -30 -5 -37 -29
-47 -20 -7 -50 -42 -100 -116 -68 -102 -84 -137 -60 -137 5 0 8 -4 5 -9 -10
-15 -57 1 -73 25 -8 13 -20 24 -26 24 -20 0 -47 33 -47 57 0 21 2 22 20 11 18
-11 23 -9 45 17 13 17 24 34 25 38 0 5 10 22 21 39 l21 30 -33 34 c-18 19 -39
34 -47 34 -15 0 -132 -79 -132 -89 0 -4 5 -12 12 -19 9 -9 5 -12 -20 -12 -26
0 -35 5 -42 25 -5 14 -20 29 -34 34 -13 5 -28 23 -34 39 -12 36 -4 49 14 24
17 -24 52 -9 170 70 70 48 95 70 99 91 6 22 12 27 38 27 31 0 133 55 192 104
27 22 29 27 17 45 -11 20 -10 21 22 21 25 0 40 -7 55 -26z m3619 -246 c-33
-12 -34 -16 -7 -65 58 -107 96 -159 127 -172 27 -12 32 -20 32 -47 0 -34 28
-88 101 -195 40 -60 55 -69 77 -47 6 6 15 9 19 5 11 -11 -30 -60 -69 -82 -19
-11 -46 -28 -60 -38 -18 -12 -34 -16 -53 -11 -23 6 -25 8 -11 16 25 14 19 42
-18 91 -19 25 -41 58 -50 74 -8 15 -26 42 -40 58 l-24 30 -36 -19 c-62 -33
-62 -35 3 -142 75 -123 78 -127 107 -121 15 2 24 -1 24 -8 0 -21 -41 -65 -60
-65 -10 0 -25 -7 -34 -15 -23 -23 -82 -46 -101 -39 -14 6 -13 8 5 21 11 8 20
20 20 27 0 7 -31 61 -70 119 -50 76 -77 108 -95 113 -21 5 -25 12 -25 40 0 20
-12 54 -30 82 -16 27 -30 52 -30 56 0 4 -6 13 -12 20 -7 8 -23 25 -35 40 -24
28 -38 32 -48 16 -11 -18 -23 -11 -18 10 6 22 58 70 75 70 5 0 19 11 30 25 20
26 60 33 88 15 10 -7 11 -10 2 -10 -28 0 -20 -30 28 -110 64 -106 64 -106 94
-92 30 13 66 43 66 55 0 4 -18 35 -40 69 -23 33 -48 74 -56 90 -11 22 -21 29
-35 25 -16 -4 -19 -2 -13 16 8 28 33 57 49 57 6 0 22 11 35 25 19 20 33 25 69
24 43 -1 44 -1 19 -11z m-3264 -54 c9 -8 16 -20 16 -25 0 -5 12 -9 28 -9 39 0
130 -51 152 -86 29 -43 27 -123 -4 -173 -26 -40 -74 -81 -98 -81 -32 -1 -41
-16 -24 -47 19 -38 12 -63 -33 -133 -60 -90 -72 -124 -55 -148 12 -17 12 -21
-2 -26 -28 -11 -101 -6 -112 7 -6 6 -13 29 -17 49 -6 34 -1 48 54 139 34 57
61 108 61 115 0 13 -51 54 -67 54 -8 -1 -116 -171 -129 -203 -3 -9 3 -24 14
-35 20 -20 20 -20 -1 -26 -46 -12 -66 -6 -82 23 -10 21 -20 28 -34 24 -22 -6
-57 28 -63 62 -4 20 -1 22 25 21 27 -1 35 8 94 103 49 79 64 111 60 130 -4 22
0 29 26 41 22 10 47 42 85 104 53 88 59 116 25 116 -15 0 -16 2 -3 10 23 15
67 12 84 -6z m2760 -358 c20 -50 34 -91 33 -93 -2 -1 -19 -9 -39 -17 l-36 -15
-12 32 c-39 106 -61 123 -119 93 -26 -14 -31 -22 -31 -54 0 -68 61 -120 127
-107 27 5 37 2 51 -15 9 -12 42 -34 72 -49 72 -37 105 -96 104 -186 0 -71 -19
-113 -70 -152 -46 -34 -118 -37 -179 -5 -51 26 -69 47 -88 102 -12 36 -20 45
-36 43 -12 -2 -21 1 -21 6 0 14 30 41 44 41 8 0 19 7 26 15 16 19 44 19 59 1
9 -11 9 -15 -1 -18 -23 -8 22 -99 59 -121 98 -57 153 67 65 144 -31 28 -40 31
-78 25 -36 -4 -45 -2 -53 13 -6 10 -37 30 -71 45 -69 31 -105 77 -119 153 -15
76 11 134 79 179 36 24 46 26 100 20 59 -7 60 -7 71 21 10 26 12 27 19 8 5
-11 24 -60 44 -109z m-2224 77 c10 -12 30 -19 61 -20 53 -2 120 -32 144 -65
49 -70 39 -185 -21 -237 -19 -17 -41 -31 -49 -31 -22 0 -25 -14 -10 -56 8 -21
14 -55 15 -75 0 -49 -47 -137 -93 -173 -35 -28 -46 -31 -107 -31 -62 0 -72 3
-108 33 -23 17 -49 32 -60 32 -20 0 -72 36 -72 49 0 5 11 6 23 4 22 -4 26 3
51 74 15 43 36 100 46 126 15 36 17 54 9 74 -5 14 -8 27 -7 28 2 1 13 7 24 13
15 8 33 43 58 112 20 56 36 110 36 120 0 19 -19 30 -53 30 -18 0 -19 2 -7 11
23 15 102 4 120 -18z m494 -150 c4 -5 40 -8 79 -9 54 0 83 -6 116 -23 35 -19
48 -21 67 -12 21 9 24 8 24 -12 0 -25 -28 -189 -33 -194 -2 -2 -18 0 -36 3
l-31 7 6 61 6 62 -34 18 c-55 30 -83 17 -98 -43 -6 -27 -12 -71 -13 -98 l-2
-48 35 0 c29 0 36 4 38 23 6 39 27 18 25 -24 -1 -21 -2 -53 -2 -71 0 -23 -7
-37 -26 -49 -29 -19 -44 -12 -25 11 14 17 5 23 -40 27 -24 3 -25 0 -44 -110
-20 -127 -16 -142 39 -142 47 0 74 27 84 83 5 26 10 50 13 52 2 2 17 1 33 -4
27 -7 30 -11 27 -44 -6 -67 -18 -92 -60 -124 -59 -45 -115 -52 -178 -22 -27
13 -57 22 -68 21 -19 -2 -86 34 -86 47 0 4 10 7 22 7 27 -1 31 12 52 152 11
72 13 110 5 128 -7 20 -6 31 5 43 15 18 23 40 31 91 3 19 9 58 14 87 8 56 1
73 -32 73 -10 0 -15 5 -12 11 14 22 83 38 99 22z m745 -60 c42 -32 62 -75 64
-142 1 -52 -3 -65 -30 -103 l-31 -44 29 -16 c39 -23 49 -54 49 -153 0 -92 11
-135 35 -135 36 0 -3 -48 -57 -71 -28 -11 -32 -10 -63 22 -33 34 -33 35 -39
153 -4 65 -9 122 -12 127 -3 5 -25 9 -49 9 l-44 0 6 -122 c5 -127 14 -153 45
-145 17 5 16 3 -3 -24 -21 -31 -47 -36 -81 -18 -14 8 -23 8 -31 0 -18 -18 -52
-13 -83 11 l-28 22 25 6 c24 6 24 8 27 130 2 113 1 127 -19 153 -19 26 -19 30
-5 46 13 14 16 42 16 134 0 122 0 122 -45 117 -16 -2 -17 1 -7 13 23 27 72 42
94 28 15 -10 23 -10 34 0 39 32 160 33 203 2z"/>
<path d="M5614 8568 c-5 -7 -16 -53 -25 -103 -15 -80 -15 -93 -2 -119 14 -26
13 -30 -8 -52 -20 -21 -24 -39 -50 -201 -5 -28 3 -64 17 -77 38 -39 94 -5 100
61 2 21 9 70 15 110 10 62 9 74 -5 94 -15 22 -14 25 9 49 20 21 27 43 37 122
10 79 9 99 -1 112 -16 19 -77 21 -87 4z"/>
<path d="M4075 8195 c3 -38 9 -85 12 -103 5 -31 7 -33 37 -26 17 3 35 10 40
15 11 10 -40 117 -74 159 l-21 25 6 -70z"/>
<path d="M7262 7687 c-39 -40 -72 -77 -72 -83 0 -19 36 -44 62 -44 17 0 42 15
71 43 48 46 67 75 67 105 0 19 -29 52 -46 52 -5 0 -42 -33 -82 -73z"/>
<path d="M2986 7768 c-9 -12 -16 -28 -16 -35 0 -7 29 -46 65 -87 46 -53 73
-76 92 -78 22 -2 29 -10 36 -39 4 -19 24 -53 43 -75 20 -21 48 -53 64 -71 50
-56 94 -68 125 -33 28 31 12 65 -72 151 -53 54 -84 79 -100 79 -24 0 -27 4
-37 50 -3 14 -34 55 -68 93 -70 74 -104 86 -132 45z"/>
<path d="M4965 7470 c-38 -11 -146 -29 -240 -40 -221 -27 -230 -28 -296 -56
-30 -12 -111 -39 -180 -59 -132 -39 -224 -82 -303 -143 -62 -47 -90 -84 -82
-108 5 -17 74 -68 115 -86 29 -12 -4 -8 -76 11 -69 18 -73 18 -101 1 -40 -24
-90 -87 -158 -194 -76 -123 -97 -165 -138 -287 -42 -128 -120 -444 -137 -554
-19 -131 13 -508 61 -711 29 -124 126 -388 180 -492 114 -217 172 -305 261
-393 l86 -86 -18 -119 c-9 -65 -24 -165 -33 -221 -9 -57 -16 -118 -16 -135 0
-83 150 -315 306 -474 180 -183 356 -284 609 -348 196 -49 247 -53 332 -28 83
26 120 60 163 154 21 48 36 69 53 73 29 7 217 -28 291 -55 32 -12 66 -18 75
-15 9 4 75 10 146 15 120 8 135 11 194 42 50 26 78 50 126 110 91 112 153 223
156 278 1 25 10 54 20 65 18 20 44 103 36 112 -3 2 3 24 14 48 12 27 19 65 19
102 -1 32 1 92 4 133 3 41 7 113 9 161 2 47 9 95 16 106 12 24 18 94 8 110 -4
6 -2 25 3 43 5 18 10 64 11 104 1 39 9 91 17 116 14 41 14 51 -1 100 -9 30
-19 76 -22 101 -4 35 -14 54 -40 79 l-34 33 23 31 c35 47 49 100 43 169 -3 34
-8 72 -12 83 -6 19 -1 24 32 34 67 21 168 87 197 128 28 41 126 297 126 330 0
10 9 27 20 37 42 38 44 130 2 168 -9 8 -48 23 -87 31 -74 17 -256 70 -390 115
-93 30 -78 10 -184 261 -95 225 -94 220 -26 300 46 53 60 80 87 162 31 95 32
100 20 169 -7 40 -24 93 -38 118 -51 93 -80 117 -228 185 -76 36 -155 76 -175
90 -40 27 -166 69 -256 85 -76 13 -335 31 -440 31 -45 -1 -110 -9 -150 -20z
m575 -57 c30 -8 91 -25 135 -37 55 -15 104 -37 152 -69 39 -26 96 -58 127 -72
31 -14 56 -27 56 -29 0 -10 -117 27 -188 60 -42 19 -117 46 -166 60 -50 14
-99 30 -110 36 -11 6 -72 12 -136 14 -63 2 -182 6 -265 9 -127 6 -157 4 -195
-10 -61 -23 -212 -56 -228 -50 -18 7 -188 -13 -232 -26 -19 -6 -79 -31 -132
-56 -86 -39 -107 -45 -190 -50 -84 -5 -91 -4 -73 10 11 8 49 24 85 35 36 11
101 32 145 46 44 14 119 39 167 56 68 24 115 32 220 41 73 5 165 19 203 29
102 28 110 28 350 23 150 -3 237 -10 275 -20z m-1410 -483 c8 -5 11 -10 5 -10
-5 0 -17 5 -25 10 -8 5 -10 10 -5 10 6 0 17 -5 25 -10z m50 -20 c8 -5 11 -10
5 -10 -5 0 -17 5 -25 10 -8 5 -10 10 -5 10 6 0 17 -5 25 -10z m868 -45 c-21
-19 -43 -35 -50 -35 -7 0 4 16 24 35 21 19 43 35 50 35 7 0 -4 -16 -24 -35z
m112 20 c-7 -9 -15 -13 -17 -11 -7 7 7 26 19 26 6 0 6 -6 -2 -15z m-216 -10
c-25 -19 -40 -19 -24 0 7 8 20 15 28 15 13 0 12 -3 -4 -15z m996 -103 c-8 -2
-20 -10 -26 -17 -6 -8 -16 -10 -23 -5 -10 6 -6 12 15 22 16 8 33 12 39 9 5 -2
2 -7 -5 -9z m128 -14 c-39 -70 -106 -115 -185 -124 l-48 -6 40 24 c69 42 130
85 149 107 11 12 27 21 38 21 16 0 17 -3 6 -22z m-192 -37 c-11 -17 -75 -41
-108 -40 l-33 1 50 24 c49 23 101 32 91 15z m256 -29 c-12 -16 -39 -45 -62
-65 -31 -29 -48 -37 -78 -37 l-37 0 51 30 c28 16 62 41 76 57 24 28 60 53 67
47 2 -1 -6 -16 -17 -32z m-854 3 c52 -14 99 -28 104 -31 5 -3 43 -5 86 -5 65
0 100 -7 227 -49 207 -67 255 -80 303 -80 38 0 43 -3 61 -37 10 -21 22 -49 26
-63 4 -14 36 -94 71 -178 35 -84 64 -155 64 -157 0 -16 -39 0 -67 27 -29 28
-40 32 -120 39 -198 17 -606 -2 -778 -36 -92 -19 -378 -55 -384 -49 -8 7 32
137 55 181 24 44 31 83 15 83 -4 0 -23 29 -40 64 -29 56 -33 73 -33 147 0 71
-3 88 -21 107 l-20 22 59 0 c32 1 97 9 144 19 115 25 137 25 248 -4z m-690
-267 c27 1 32 -3 28 -15 -4 -9 -1 -22 5 -29 13 -16 -4 -44 -28 -44 -8 0 -11
-5 -7 -11 8 -14 -57 -4 -146 23 -70 21 -98 38 -63 38 23 0 47 23 36 34 -4 4 0
4 10 0 10 -4 17 -1 17 6 0 9 16 10 58 5 31 -4 72 -7 90 -7z m-313 -98 c3 -5
-1 -10 -9 -10 -9 0 -16 5 -16 10 0 6 4 10 9 10 6 0 13 -4 16 -10z m140 -31
c47 -12 85 -26 85 -31 0 -5 -8 -7 -18 -4 -10 3 -44 13 -76 21 -54 14 -102 34
-83 35 4 0 46 -10 92 -21z m-122 -56 c-7 -2 -19 -2 -25 0 -7 3 -2 5 12 5 14 0
19 -2 13 -5z m104 -18 c87 -20 105 -26 100 -31 -4 -5 -179 35 -186 42 -8 7 17
4 86 -11z m-247 -35 c-20 -13 -50 -13 -50 0 0 6 15 10 33 10 24 0 28 -3 17
-10z m185 -30 c55 -11 125 -27 155 -36 30 -8 69 -19 85 -24 44 -12 115 -41 85
-35 -14 3 -70 15 -125 26 -55 12 -103 23 -106 25 -3 1 -52 13 -110 24 -140 29
-145 30 -128 41 8 5 21 7 29 4 8 -2 60 -13 115 -25z m202 24 c-3 -3 -12 -4
-19 -1 -8 3 -5 6 6 6 11 1 17 -2 13 -5z m-587 -44 c0 -5 -12 -10 -27 -10 -22
0 -25 2 -13 10 20 13 40 13 40 0z m105 -20 c14 -6 7 -7 -24 -5 -24 2 -46 6
-49 9 -8 9 51 6 73 -4z m140 -20 c79 -11 323 -65 332 -74 10 -10 -26 -7 -86 8
-31 8 -125 27 -208 42 -84 16 -153 32 -153 37 0 5 10 6 23 3 12 -4 54 -11 92
-16z m1674 1 c10 -7 9 -11 -6 -22 -11 -8 -22 -21 -25 -30 -5 -13 -30 -17 -130
-23 -151 -9 -245 -20 -255 -30 -5 -4 -8 -78 -7 -164 1 -131 4 -168 22 -222 21
-64 21 -65 3 -84 -29 -29 -48 -13 -70 58 -31 102 -44 252 -32 380 6 61 15 114
19 118 19 19 454 36 481 19z m-1729 -71 c198 -40 207 -43 181 -49 -18 -5 -367
43 -431 58 -3 1 3 7 12 14 19 15 80 9 238 -23z m2017 20 c16 -12 41 -20 65
-20 30 0 39 -3 35 -14 -3 -7 1 -23 8 -34 13 -17 12 -25 -5 -59 -10 -22 -22
-51 -25 -66 -6 -22 -11 -26 -30 -21 -25 6 -22 14 -56 -118 -20 -77 -91 -200
-156 -269 -68 -72 -127 -104 -209 -116 -41 -5 -47 -4 -41 10 4 11 2 14 -8 10
-8 -3 -12 -9 -9 -14 3 -5 -11 -9 -31 -9 -33 0 -35 2 -25 20 6 11 16 20 23 21
7 0 40 2 75 3 114 6 191 76 251 226 40 103 63 218 63 325 0 88 15 145 39 145
6 0 22 -9 36 -20z m-2172 -85 c136 -22 151 -26 134 -35 -13 -7 -247 17 -259
27 -4 4 20 23 30 23 3 0 46 -7 95 -15z m1245 -11 c0 -8 -7 -14 -15 -14 -15 0
-21 21 -9 33 10 9 24 -2 24 -19z m1260 8 c0 -13 -12 -22 -22 -16 -10 6 -1 24
13 24 5 0 9 -4 9 -8z m57 -6 c-4 -10 0 -12 14 -9 10 3 32 0 47 -6 24 -10 28
-17 24 -41 l-4 -28 -71 19 c-87 25 -114 38 -75 39 21 0 25 4 21 20 -4 16 0 20
22 20 19 0 26 -4 22 -14z m-2011 -12 c-9 -8 -16 -19 -16 -24 0 -4 -17 -15 -37
-23 l-38 -15 27 -7 c32 -8 44 -32 20 -39 -9 -3 -75 -15 -147 -26 -71 -12 -155
-28 -186 -36 l-55 -16 -53 33 -54 34 34 14 c61 25 429 112 507 120 10 1 9 -3
-2 -15z m1434 -9 c0 -8 -9 -15 -20 -15 -11 0 -66 -24 -123 -53 -181 -94 -185
-88 -10 14 119 69 153 81 153 54z m-1435 -56 c-10 -15 -25 -10 -19 6 4 8 10
12 15 9 5 -3 7 -10 4 -15z m1469 -8 c10 -11 15 -24 12 -30 -3 -5 -64 -39 -135
-75 -122 -62 -130 -64 -165 -54 -36 11 -46 30 -24 45 60 39 248 132 269 132
14 1 34 -8 43 -18z m-916 -58 c41 -24 55 -27 128 -25 90 2 94 -1 94 -73 0 -88
91 -317 145 -364 92 -80 235 -110 364 -76 150 39 230 112 332 303 18 34 36 62
39 62 4 0 13 -18 20 -40 7 -22 48 -99 91 -172 43 -72 86 -154 96 -182 20 -59
22 -161 5 -193 -21 -38 -78 -48 -193 -33 -83 11 -107 11 -133 1 -131 -54 -146
-53 -146 7 0 24 8 49 20 65 24 31 26 53 4 61 -25 9 -55 -15 -121 -96 -77 -95
-137 -193 -130 -213 9 -22 30 -19 56 9 13 14 36 30 52 36 16 7 29 16 29 20 0
11 71 21 98 14 34 -9 27 -19 -29 -43 -31 -14 -57 -33 -67 -51 -10 -18 -30 -32
-55 -40 -21 -6 -58 -29 -82 -51 -23 -21 -47 -39 -54 -39 -6 0 -36 -24 -65 -52
-30 -29 -71 -63 -92 -76 -37 -23 -38 -23 -78 -6 -23 10 -61 36 -86 59 -28 25
-70 49 -112 64 -53 18 -72 30 -88 56 -30 48 -87 95 -115 95 -26 0 -45 25 -45
60 0 28 -33 91 -59 112 -17 15 -21 29 -21 81 0 43 -6 75 -20 102 -12 24 -20
59 -20 90 0 27 -7 64 -16 80 -13 24 -15 47 -10 108 6 68 4 83 -14 116 l-22 37
20 58 c11 33 18 73 15 92 -3 19 -1 34 4 35 4 1 37 7 73 14 105 20 136 18 188
-12z m1361 -86 c1 -17 -25 -35 -35 -24 -3 3 -2 32 2 64 l8 58 12 -40 c7 -22
13 -48 13 -58z m-793 41 c-9 -12 -16 -30 -16 -40 0 -28 -30 -38 -63 -21 l-29
14 54 34 c62 40 75 43 54 13z m-1661 -14 c18 -8 55 -36 83 -62 56 -51 98 -137
109 -222 3 -25 11 -55 19 -67 8 -12 13 -46 12 -80 -1 -47 3 -68 21 -97 15 -24
23 -52 23 -78 -1 -23 3 -50 9 -59 8 -16 6 -17 -21 -8 -17 6 -39 22 -50 36 -17
22 -19 35 -13 98 5 63 3 78 -15 108 -11 20 -21 55 -23 79 -2 44 -44 134 -83
177 -118 132 -388 22 -310 -126 11 -20 31 -43 46 -53 16 -9 25 -19 22 -23 -3
-3 4 -3 17 0 14 4 20 2 15 -5 -3 -6 3 -13 14 -17 11 -3 20 -13 20 -22 0 -11 6
-14 27 -8 22 5 24 4 15 -7 -9 -11 -5 -14 20 -16 16 -1 39 -7 50 -13 10 -6 38
-9 61 -7 l42 3 5 -86 c6 -96 21 -128 76 -161 19 -11 34 -25 35 -31 0 -7 2 -25
2 -42 2 -26 6 -31 37 -35 29 -4 36 -10 38 -32 4 -31 -33 -123 -61 -155 -25
-28 -81 -31 -115 -7 -33 23 -67 80 -98 168 -36 102 -81 170 -192 288 -110 119
-134 171 -135 293 0 60 6 94 22 135 27 66 42 84 100 122 52 33 122 38 176 12z
m2536 -78 c-17 -18 -65 -50 -106 -70 -41 -21 -75 -41 -76 -44 -5 -50 -29 -82
-29 -39 0 14 -8 31 -17 36 -16 9 -15 10 7 11 14 0 48 18 77 39 35 27 58 38 72
34 16 -4 21 -1 21 16 0 14 12 27 38 40 20 10 39 17 41 15 3 -2 -10 -19 -28
-38z m-910 -44 c46 -21 128 -56 182 -76 53 -21 97 -42 97 -47 0 -11 -78 -69
-93 -69 -20 0 -276 165 -262 168 23 5 19 42 -5 42 -11 0 -20 5 -20 10 0 16 12
12 101 -28z m839 -84 c0 -13 9 -38 20 -56 25 -41 25 -43 -3 -33 -31 12 -57 -4
-57 -34 0 -14 -4 -25 -10 -25 -17 0 -11 40 10 70 14 20 19 37 14 54 -6 26 1
46 17 46 5 0 9 -10 9 -22z m-2736 -344 c16 -42 -2 -144 -26 -144 -9 0 -10 137
-1 153 7 12 21 8 27 -9z m-110 -110 c10 -27 7 -30 -29 -30 -40 0 -46 18 -12
34 30 15 34 14 41 -4z m-25 -55 c-7 -14 -14 -18 -21 -11 -13 13 -2 32 18 32
12 0 13 -4 3 -21z m2661 -121 c0 -4 -7 -8 -15 -8 -10 0 -15 10 -15 28 1 26 1
26 15 8 8 -11 15 -23 15 -28z m-84 10 c6 -20 -15 -48 -38 -48 -11 0 -10 28 2
51 14 25 27 24 36 -3z m-126 -69 c-7 -11 -14 -19 -16 -16 -7 7 7 37 17 37 6 0
5 -9 -1 -21z m-110 -49 c0 -20 -22 -57 -42 -69 -18 -11 -19 -10 -13 11 14 47
55 91 55 58z m-127 -100 c-6 -24 -33 -49 -33 -31 0 18 19 51 29 51 5 0 7 -9 4
-20z m382 -20 c13 -15 31 -20 65 -20 53 0 95 -18 129 -54 15 -16 19 -26 11
-31 -6 -4 -59 -11 -118 -16 -184 -15 -201 -19 -238 -51 -33 -29 -44 -61 -24
-73 5 -3 29 5 52 18 27 16 67 27 108 31 36 3 83 9 106 11 51 7 73 -12 56 -50
-12 -25 -9 -26 -124 7 -66 19 -132 -11 -143 -64 -4 -18 -16 -44 -26 -57 -10
-12 -21 -39 -25 -60 -10 -62 -13 -66 -29 -45 -8 10 -15 29 -15 42 0 12 -11 48
-24 80 -35 85 -39 126 -14 154 11 13 26 35 34 50 8 15 23 29 34 33 11 3 29 18
40 32 21 27 97 81 116 82 6 1 19 -8 29 -19z m-1893 -15 c0 -6 5 -21 10 -35 19
-49 22 -66 20 -124 -2 -47 3 -67 23 -102 20 -34 25 -55 24 -104 -2 -56 3 -72
47 -156 27 -52 53 -94 58 -94 5 0 6 -3 3 -7 -4 -3 -2 -12 4 -20 6 -7 8 -13 5
-13 -4 0 0 -7 9 -16 13 -14 14 -19 3 -25 -9 -6 -9 -9 -1 -9 6 0 10 -9 8 -20
-2 -11 0 -22 6 -25 5 -4 9 -15 9 -26 0 -10 9 -28 19 -38 11 -11 17 -22 14 -24
-2 -3 5 -8 16 -12 12 -3 19 -11 16 -16 -4 -5 1 -12 9 -15 9 -3 13 -10 10 -15
-3 -5 0 -9 7 -9 9 0 9 -4 -1 -15 -6 -8 -9 -19 -5 -25 15 -24 -16 -7 -37 20
-29 40 -42 38 -34 -5 7 -34 6 -35 -23 -35 -45 0 -49 -20 -4 -21 21 -1 44 -1
51 0 11 2 12 -7 7 -37 -8 -48 11 -70 45 -52 16 9 20 17 16 33 -17 56 -16 57
11 46 14 -5 35 -7 47 -4 16 5 18 4 7 -4 -12 -8 -9 -11 13 -17 17 -4 23 -9 16
-14 -7 -4 0 -12 19 -20 17 -7 28 -16 26 -20 -3 -5 4 -11 15 -15 11 -4 18 -10
15 -15 -3 -4 2 -11 11 -14 8 -3 12 -2 9 4 -13 21 34 -1 66 -32 16 -15 16 -17
1 -24 -9 -4 -24 -8 -32 -8 -8 -1 -14 -4 -12 -9 1 -4 2 -11 2 -16 0 -12 59 -35
68 -27 4 4 -4 15 -16 25 -22 16 -21 31 1 31 6 0 8 -2 5 -5 -3 -3 14 -26 38
-51 24 -25 44 -53 44 -63 0 -23 50 -46 79 -36 16 5 19 2 16 -13 -2 -13 5 -24
21 -32 13 -8 24 -17 24 -20 0 -4 20 -15 45 -24 25 -10 43 -21 40 -25 -2 -5 7
-13 22 -20 18 -8 23 -15 16 -22 -8 -8 -18 -7 -33 1 -12 6 -30 10 -41 7 -12 -3
-20 2 -24 14 -8 25 -39 41 -84 43 -20 1 -56 12 -79 25 -38 19 -43 26 -38 47 5
19 3 24 -14 24 -11 0 -20 -4 -20 -9 0 -6 -12 -3 -27 5 -32 16 -69 18 -78 4 -9
-15 -35 -12 -35 4 0 20 -49 49 -72 43 -15 -4 -17 -3 -7 9 6 7 15 12 19 9 5 -3
12 0 16 6 4 7 -6 24 -25 41 -33 30 -51 35 -51 17 0 -7 -9 0 -21 15 -11 14 -34
33 -50 41 -27 14 -29 14 -29 -2 -1 -20 -82 -113 -99 -113 -21 0 -11 -19 25
-46 l36 -28 43 47 c23 26 45 47 47 47 3 0 0 -25 -5 -55 -8 -41 -7 -58 3 -70
14 -17 50 -21 50 -5 0 6 13 -4 29 -22 27 -30 31 -31 56 -20 37 17 43 8 21 -33
-20 -36 -36 -38 -36 -4 0 23 -11 24 -50 4 -35 -18 -40 -38 -9 -33 15 2 35 -10
59 -34 41 -41 78 -49 104 -22 9 8 16 11 16 7 0 -14 78 -55 90 -48 5 3 10 13
10 21 0 8 6 14 14 14 9 0 13 -10 11 -31 l-3 -30 52 2 c28 1 64 -3 79 -9 16 -7
26 -8 23 -3 -3 5 0 11 8 14 8 3 13 -1 12 -11 -1 -11 8 -18 22 -20 33 -5 24
-33 -13 -44 -60 -18 -158 -9 -316 31 -180 45 -273 85 -409 175 -137 92 -282
250 -400 436 -46 72 -55 94 -58 143 l-5 59 31 -30 c17 -17 40 -33 51 -37 13
-4 23 -18 27 -40 4 -26 13 -36 35 -44 31 -11 63 -5 53 10 -3 5 2 6 10 3 38
-14 10 -44 -41 -44 -34 0 -24 -24 13 -30 22 -4 30 -11 32 -30 5 -33 40 -70 67
-70 11 0 30 7 41 15 14 9 34 12 58 8 39 -6 47 -26 19 -42 -10 -5 -16 -11 -13
-13 28 -21 92 -58 100 -58 5 0 10 7 10 16 0 9 14 41 30 71 17 31 29 56 28 57
-2 1 -24 18 -50 39 -53 42 -68 46 -68 17 0 -23 -10 -26 -28 -8 -8 8 -14 4 -24
-18 l-12 -29 -4 44 c-4 47 15 74 31 45 8 -13 14 -11 43 17 45 43 47 83 3 43
-16 -14 -19 -14 -38 5 -23 23 -46 27 -56 11 -11 -17 -25 -11 -25 10 0 12 -6
33 -13 48 -7 15 -13 34 -12 42 1 8 -3 21 -9 28 -7 10 -5 17 7 23 9 6 17 16 17
24 0 7 5 15 11 17 7 2 7 17 1 46 -6 23 -7 42 -3 42 3 0 6 16 7 35 0 19 -3 35
-6 35 -8 0 -7 41 2 55 9 16 7 68 -5 90 -6 11 -11 27 -12 37 0 9 -3 20 -7 24
-5 4 -8 20 -8 36 0 15 -4 28 -10 28 -5 0 -19 20 -30 45 -22 48 -52 60 -65 28
-3 -10 -15 -81 -25 -158 -10 -77 -22 -162 -25 -190 -4 -27 -13 -65 -21 -84 -8
-18 -14 -46 -14 -61 0 -15 -9 -35 -20 -45 -11 -10 -22 -26 -25 -36 -4 -11 -16
-19 -29 -19 l-23 0 13 83 c7 45 18 112 24 149 l12 67 24 -16 c37 -24 41 -8 7
30 l-30 34 13 79 c8 43 22 148 33 233 11 85 22 156 24 158 2 2 16 -1 31 -7 37
-14 95 -12 131 5 33 15 46 15 47 0z m-255 -847 c-3 -8 -6 -5 -6 6 -1 11 2 17
5 13 3 -3 4 -12 1 -19z m205 -171 l-31 -30 1 31 c1 24 7 33 27 40 38 13 39 -5
3 -41z m32 -68 c-20 -22 -54 -25 -54 -5 0 8 15 26 33 40 31 25 32 25 35 5 2
-11 -4 -29 -14 -40z m181 -38 c-24 -46 -39 -61 -53 -52 -10 6 -10 14 -2 37 17
44 40 66 56 53 11 -9 11 -16 -1 -38z m100 -111 c-34 -49 -43 -56 -58 -41 -8 8
1 22 32 51 24 23 46 39 49 36 3 -3 -8 -24 -23 -46z m115 11 c0 -17 -18 -21
-24 -6 -3 9 0 15 9 15 8 0 15 -4 15 -9z m201 -206 c0 -5 -5 -11 -13 -13 -10
-3 -10 -1 1 6 11 8 10 11 -5 15 -16 5 -16 6 -1 4 10 -1 18 -6 18 -12z m16 -30
c0 -8 -3 -13 -6 -10 -3 3 -11 -5 -18 -17 l-12 -23 -1 27 c0 17 6 28 18 31 9 3
17 5 18 6 0 0 1 -6 1 -14z m-87 -24 c0 -22 -15 -35 -30 -26 -7 4 -7 13 0 26
14 25 30 25 30 0z"/>
<path d="M5173 5673 c-17 -6 -16 -28 2 -43 20 -17 19 -37 -2 -43 -15 -4 -15
-6 5 -12 17 -6 22 -15 22 -42 0 -28 -3 -34 -16 -29 -9 3 -18 6 -20 6 -3 0 -2
5 1 10 3 6 -1 10 -9 10 -23 0 -20 -16 6 -34 35 -25 83 -20 107 10 22 28 20 44
-5 44 -8 0 -12 -5 -9 -10 7 -11 -12 -40 -25 -40 -14 0 -17 72 -3 77 18 7 16
23 -3 23 -12 0 -14 7 -9 31 9 38 -9 56 -42 42z m27 -23 c0 -5 -4 -10 -10 -10
-5 0 -10 5 -10 10 0 6 5 10 10 10 6 0 10 -4 10 -10z"/>
<path d="M5230 5361 c-61 -17 -18 -142 63 -186 31 -16 38 -17 52 -5 15 13 14
17 -19 46 -19 17 -38 44 -41 60 -3 16 -8 36 -10 44 -2 8 -4 23 -4 33 -1 18 -3
19 -41 8z"/>
<path d="M4121 4981 c-10 -7 -12 -21 -8 -53 4 -29 2 -49 -6 -57 -9 -9 -9 -14
0 -19 6 -4 16 -25 22 -47 14 -49 38 -82 50 -69 14 14 19 164 5 164 -6 0 -17
20 -23 45 -12 47 -16 51 -40 36z"/>
<path d="M5780 5491 c0 -26 27 -34 39 -12 12 21 5 31 -21 31 -11 0 -18 -7 -18
-19z"/>
<path d="M4380 3851 c0 -13 60 -55 67 -48 6 7 -46 57 -58 57 -5 0 -9 -4 -9 -9z"/>
<path d="M4686 3602 c-7 -11 40 -52 59 -52 20 0 19 10 -2 27 -32 25 -52 33
-57 25z"/>
<path d="M7626 7125 c-15 -8 -32 -15 -36 -15 -5 0 -29 -9 -55 -20 l-46 -20 16
-29 c8 -16 19 -33 25 -36 11 -7 110 77 136 114 19 26 3 28 -40 6z"/>
<path d="M2663 3649 c-65 -43 -76 -65 -47 -93 24 -24 46 -20 104 22 65 45 79
65 64 90 -19 30 -55 25 -121 -19z"/>
<path d="M2408 3471 c-79 -51 -94 -71 -78 -101 20 -38 45 -33 122 21 40 29 76
57 80 63 13 19 9 54 -8 60 -29 11 -41 6 -116 -43z"/>
<path d="M7457 3745 c-35 -35 -19 -61 78 -125 28 -19 52 -37 53 -42 7 -15 31
-8 46 14 32 45 16 75 -71 136 -46 31 -86 38 -106 17z"/>
<path d="M7080 3288 c-11 -12 -20 -28 -20 -36 0 -7 28 -45 61 -83 49 -55 68
-69 90 -69 24 0 29 -4 29 -26 0 -18 19 -46 63 -92 80 -86 87 -91 118 -92 31 0
49 17 49 48 0 36 -133 170 -177 178 -28 5 -33 11 -33 33 0 19 -17 43 -62 87
-76 74 -91 80 -118 52z"/>
<path d="M2968 3107 c-37 -24 -70 -46 -74 -50 -8 -7 34 -57 47 -57 7 0 82 100
103 138 12 21 -6 13 -76 -31z"/>
<path d="M3563 2898 c-32 -40 -93 -153 -89 -164 6 -16 50 -28 71 -21 23 10 88
114 88 143 0 42 -48 70 -70 42z"/>
<path d="M4117 2628 c-23 -19 -69 -149 -56 -164 17 -20 48 -23 68 -6 11 10 29
45 41 78 17 49 20 66 11 83 -13 24 -39 27 -64 9z"/>
<path d="M4017 2348 c-15 -11 -77 -163 -77 -188 0 -5 11 -17 24 -26 38 -24 56
-6 92 89 26 71 29 90 20 109 -14 27 -35 33 -59 16z"/>
<path d="M5146 2471 c-3 -5 -3 -52 1 -105 l6 -96 33 0 c46 0 57 25 52 117 -2
51 -8 77 -18 83 -19 12 -67 13 -74 1z"/>
</g>
</svg>
